<svg xmlns="http://www.w3.org/2000/svg" width="36" height="36" viewBox="0 0 36 36">
    <g fill="none" fill-rule="evenodd">
        <g>
            <g>
                <g>
                    <g>
                        <g>
                            <g>
                                <g transform="translate(-985 -1254) translate(0 566) translate(0 488) translate(717 101) translate(266 99) translate(2) translate(1 1)">
                                    <circle cx="17" cy="17" r="17" fill="#166BE5"/>
                                    <g stroke="#FFF">
                                        <path stroke-width=".917" d="M2.754.648l.196.009c.584.05 1.149.325 1.555.809.407.485.578 1.089.527 1.673-.05.584-.325 1.149-.81 1.555-.484.407-1.088.578-1.672.527-.584-.05-1.149-.325-1.555-.81C.588 3.928.416 3.324.467 2.74c.051-.584.325-1.149.81-1.555C1.762.777 2.365.605 2.95.657z" transform="translate(10 10)"/>
                                        <path d="M4.032 4.467L12.388 14.425M.284 0L1.468 1.411" transform="translate(10 10)"/>
                                        <path stroke-width=".917" d="M11.124.657c.584-.052 1.188.12 1.672.527.485.406.759.971.81 1.555.051.584-.12 1.188-.527 1.673-.407.484-.971.758-1.556.81-.584.05-1.187-.121-1.672-.528-.485-.406-.759-.971-.81-1.555-.051-.584.12-1.188.527-1.673.407-.484.972-.758 1.556-.81z" transform="translate(10 10)"/>
                                        <path d="M10.041 4.467L1.685 14.425" transform="translate(10 10)"/>
                                    </g>
                                </g>
                            </g>
                        </g>
                    </g>
                </g>
            </g>
        </g>
    </g>
</svg>
