<svg xmlns="http://www.w3.org/2000/svg" width="36" height="36" viewBox="0 0 36 36">
    <g fill="none" fill-rule="evenodd">
        <g>
            <g>
                <g>
                    <g>
                        <g>
                            <g transform="translate(-1522 -219) translate(160 80) translate(1170 40) translate(184 99) translate(8) translate(1 1)">
                                <circle cx="17" cy="17" r="17" fill="#166BE5"/>
                                <g>
                                    <path stroke="#FFF" d="M1.5 0.5H14.5V14.5H1.5z" transform="translate(9 9)"/>
                                    <path fill="#166BE5" stroke="#FFF" d="M15.5.5v4.44c-.198.794-.5 1.401-.93 1.805-.41.385-.937.567-1.57.567-.462 0-.867-.096-1.212-.299-.345-.203-.626-.511-.851-.916h0l-.438-.787-.437.787c-.225.405-.505.713-.85.916-.345.203-.75.3-1.212.3-.462 0-.867-.097-1.212-.3-.345-.203-.626-.511-.851-.916h0l-.438-.787-.437.787c-.225.405-.505.713-.85.916-.345.203-.75.3-1.212.3-.607 0-1.116-.168-1.519-.522-.416-.365-.716-.915-.923-1.633h0L.506.5H15.5z" transform="translate(9 9)"/>
                                    <path fill="#FFF" d="M10 0H11V6H10zM5 0H6V6H5z" transform="translate(9 9)"/>
                                    <path stroke="#FFF" d="M10.5 11.5v3h-5v-3h5z" transform="translate(9 9)"/>
                                    <path fill="#FFF" d="M0 14H16V15H0z" transform="translate(9 9)"/>
                                    <path fill="#FFF" d="M1 7H2V15H1zM14 7H15V15H14z" transform="translate(9 9)"/>
                                </g>
                            </g>
                        </g>
                    </g>
                </g>
            </g>
        </g>
    </g>
</svg>
